/* XPM */
static char *result[] = {
/* columns rows colors chars-per-pixel */
"64 64 28 1 ",
"  c #202020",
". c #2C2C2C",
"X c gray19",
"o c #343434",
"O c gray22",
"+ c #400000",
"@ c #4C0000",
"# c #580000",
"$ c #640000",
"% c #700000",
"& c #7C0000",
"* c #585400",
"= c #706C00",
"- c gray25",
"; c #484848",
": c #4C4C4C",
"> c gray33",
", c gray36",
"< c #646464",
"1 c #880000",
"2 c #980000",
"3 c #A40000",
"4 c #B00000",
"5 c #BC0000",
"6 c #C80000",
"7 c #D40000",
"8 c #E00000",
"9 c #EC0000",
/* pixels */
"OOOOOOOOOOOOOOOOOOOOOOOOOOOOOOOOOOOOOOOOOOOOOOOOOOOOOOOOOOOOOOOO",
"O>O>;;;;;>;;;;;;>;O;;;;;;;>>>>>>;;;;;;;;;>>>>>>>;;;;OOO;;>>;;;;;",
";O997777777773;;>997777777777777777773;O>99998888887777766665553",
".;96447137163$.;>95151515&52525&5&563%.;O73646446%6&646143&6263&",
"=;73&3132%31%$.;>751131%33%233%23%32%#.;>733&$31%13&13313&13#3%$",
"*;7&33%233%3#+.;>715313%313%3%1&3%2&%#.;;7%3$13$3%3&313$32&3&3%@",
".;63&12&3%13%+.;>55131123%1%31%2&1%3%+.O;5%3&31$3%%33%3133&3#31@",
".;5&33%32%2%#+.;;5613%3%3%3%21%&3%2&%#.O;523$13&1%1&313$3&13&3%+",
".;53%1#%&#%1%+.O>22%%@1%%1%@%1%1%@1%%+.O;5%%#%%@1@%#1@%@1$@%1%1+",
".;&$$$++++++++.O;&$$#########+++++++++.O;1$$$$$$$$$$#########+++",
".;;........   .O>;.....     ..    .....;>O...........     ......",
".>OOOO;;;;OOOOO;O;;;;;;;OOO>;;;OO;;;;;;>O;>>>>,<<,>>;;-O->O>;;;>",
"79777555555555553;>;9977777766666665555555555555555553;->9977777",
"441142&4&214$413+O;>9%46&5$15116231&131313&6$61256263+O;O96&4141",
"21313&11$31$133%+.;;74%3&3313$3%$13&3&3$331$313%13%3%+O;>64&31&3",
"&%3312$3&112$31%+.O;7%31211$11%31$31&$&113#1&3%3%33%%+.-;6&333&3",
"&31131&&1&32$3$%+.O;7%33&3$13$%3$13&1&3$31#3$3%1%3%3%+.O;64&3&32",
"1%3$3%1&2$3$133%+.;>74#3&31$1#1%$31&#&3$1#13$13%13%3%+ O;4&33#3&",
"%%4$%@&%2%2%#2%%+.;>43%1#%2%1$%1#%2%2$1%11#2%%1@%2%1%+ ->43&%#%2",
"++@@@@@@@@@@@@+++O;>3$$$$$$$$$$$$$##################++ ;O3$+$++$",
".... ...   ...  .O;O;Oo......ooOOo...     ...    .....O;>;......",
".>>;OO;>O>O;;OOOO;;>;;;-O-O-O-;;;>O>;-OOO--;;>-OO-;;;>;>O>-O->;;",
".>997777777555555555555555553;>>99777777777755555555555555555553",
".>9145&5&5&4141461414154$46%+O;>95%7341341424&$31%13&13213&13#3+",
".O941323&%13312131$3%31$13%4+.;,7523$3$1%21$3$13$3%3&313$32&3&%+",
".;5$33%1#3$3%3123$13%131$&3%+.><75&3&3$3%23&3&31$3%%32%2133&3#%+",
".;5413@3#%131%&3&1$&3$31$3%#+.>,7%3%21$12%3$1$13&1%1&313$3&13&%+",
".>5%$3@1&3$3#3$31$131$3$1&&4+.;>76%3%3131%3$3#%%@3@3#3@331$@%1%+",
".;63$%%%#%@%%1$1%%1%%$%2%2%%+.O>63%2%1#%%%%$1%1@3#%3@%1@3#3@3%%+",
".;32$$$$$$$$$$$$$$@@@@@@@@@++.O>3$$$$$$$$$$$$$$############+#&#+",
".;;O.................OOO......;;;........     .OOO.   ..........",
".>>>>>;;O;OOO;><<>>>;;;--OO-OO->;;;>O>;>;-O-O-;>>;;-O-;;;>O>;;;>",
"555555555553;O>77777777555555555555555553;>>69777777777555555555",
"33434264463+O;O73$3%33$3133%31$33$33%3&3+O;>73&3%33$3&1&3%313&3%",
"%3&1323&31%+.;>7$3&13&32%311%1131$3%13$3+O>>73#3%31$313&112%2&21",
"%1&32&3&23%+.;O7$33&23%3%313#3@1131%23&3+O><73&3%313133&3%2132&3",
"131&3232&1%+O;>72$3&3&#2111%13$31$12%13&+O><7&33%3$33&&3&31221&%",
"%31&3&3&23%+O;;7$3&#23%11313%1@$2$32%3&3+O;>63&33%311&3&3%213&13",
"%%%12%%2%%%+O;;2$33#3&%3%3$3#1$31$2%23$&+.;>63#3%331313&3%2%2&33",
"+++@@@@@@@++.;;3$$$$$$$$$##############++.;;3$$$$$$$$$$$$$$$####",
".............;>;.    ..OOO.     .........O;;;....OO;O..   ......",
".>;>O;OO;;OOOO;;OOO;;;;;>>;;OOO>;;;>O;O;O;;>;>O>;>,<>:;;O>;>;>O>",
".O9777777755555555555555555555553O>O9977777777555555555555555553",
".>73113$33&23&3%13$3&313$3$33&%3+O;>933$3$3#3%3#31#21%31&3&2%13+",
".;73$31$312&3$1#32$3#121$3&3&3%2+.;;713$1$&#1#2&3#3$3%1%31&23$1+",
".;71$3$1%$3$31&13$211#&3@2#1$11%+.O;713$$13&#3&#23#3%%3%3&3%1$3+",
".O73131$31&23&3#13$3#13#23&333%&+.O;73$31$3#3%2&&#1$3&1212&%313+",
".>73$13$3$3$3$3%3$$3#1&3&1$2$1%3+ O>73$$3$&#3#3#2#3$1%3%&3&21$%+",
".O63$3$1%12&311132$1&#$3@3%2&3%3+ O>6%3$1$3#&3&#2%1$3%3%3&2%3$3+",
".>3$$$$$$$$$@@@@@@@@@@@@@@@@@@@@+.;>3$$$$$$$$$#####@@@@@@@@@@@++",
".O;..........OOO.    ...    ..  ..;O;......   .oOo. ....   .....",
".>O>O>;>;;;;><<>;>O>;>;-OOO-;>;;O;;>O>;;;;;;;;:>>>:;;;;OX  XO;;>",
"5777775555555555553;>;99777777775555555555555553;O>9777775555555",
"%&3#33$2$3&6&3$3&3+.;;73333$3@3&3$3$323$3$3#3%$+O;>73$13#3%3%3$3",
"@3&&3&3$2&$3#&$1$1+.;;7&3%3$%@&2&31$12$&1%1#3$3+o;>7$3#3%3%13%31",
"13&#&3$2$&3&#31$2&+.;-7&&%3$&&3#3@33$3$3$1#11$%+.;>7$3%%331%1%$%",
"3&2#2$$3$3&3#&%$3$+.;-73@%3$3@3&2$3$1&$3$31#%2$+.;>73$#31%%3%3$%",
"3$3&3$3$13$3&#13&1+.;-7@33$3&%1#&@3$3$&&$1%#1%$+.;;7$313%31%%#3%",
"@$3&&$22$2$&#3$3$2+.;;7@3%3$&&1@2$1@3&$31$3#3#1+.O;7$3#%#3%3%#$3",
"%&2#3$$1$&&3#3$%1&+.;>63@%3$3@1$3$3%$3$&3$1%1$1+.O;6$$#3#3%3%3$3",
"@@@@@@@@@@@@@@@@@++.;;3+++++@@@@@@@@@@@@@@@@@@++ ;>3++@@@@@@@@@@",
"....................;>;Ooo..............     .   O;;......     .",
";O>O>OOO;;;;;>>O;;;;>>>>>;;;>;;;>;;O;;;-OO-OO-;-O->;;O>;;;;-O-;;",
">>>>>>>>>>>>>>>>>>>>>>>>>>>>>>>>>>>>>>>>>>>>>>>>>>>>>>>>>>>>>>>>"
};
